<?xml version="1.0" standalone="no"?>
<!DOCTYPE svg PUBLIC "-//W3C//DTD SVG 20010904//EN"
 "http://www.w3.org/TR/2001/REC-SVG-20010904/DTD/svg10.dtd">
<svg version="1.0" xmlns="http://www.w3.org/2000/svg"
 width="128.000000pt" height="128.000000pt" viewBox="0 0 128.000000 128.000000"
 preserveAspectRatio="xMidYMid meet">
<metadata>
Created by potrace 1.14, written by Peter Selinger 2001-2017
</metadata>
<g transform="translate(0.000000,128.000000) scale(0.100000,-0.100000)"
fill="#000000" stroke="none">
<path d="M209 1180 c-95 -5 -109 -8 -141 -32 -68 -52 -68 -50 -68 -501 0 -477
1 -481 92 -528 35 -18 66 -19 546 -19 315 -1 519 3 535 9 41 16 84 62 96 106
9 29 11 158 9 451 l-3 411 -27 35 c-52 69 -50 68 -515 71 -230 1 -466 0 -524
-3z m-13 -489 l50 -1 0 -141 c-1 -77 1 -144 4 -149 3 -4 25 -7 50 -6 l45 1 1
135 c2 170 0 160 27 160 22 0 22 -1 22 -147 l0 -147 48 -2 47 -2 1 92 c0 50 0
117 -1 149 -1 55 -1 57 24 57 23 0 26 -4 26 -32 1 -18 2 -85 3 -148 l2 -115
48 -1 47 0 0 148 0 148 75 0 75 0 0 -149 0 -150 48 2 47 2 0 145 1 145 24 3
25 3 0 -148 0 -148 40 -1 c22 0 45 3 50 7 6 4 10 63 9 147 l-1 140 71 4 c39 3
72 4 74 3 1 -1 3 -72 3 -156 1 -288 0 -295 -19 -320 l-19 -22 -503 0 -503 0
-19 22 c-19 24 -19 23 -19 271 0 227 -2 210 24 206 12 -3 45 -5 73 -5z"/>
</g>
</svg>
